<svg width="760" height="180" viewBox="0 0 760 180" fill="none" xmlns="http://www.w3.org/2000/svg" role="img" aria-labelledby="title desc">
  <title id="title">Caixa no Azul 30D</title>
  <desc id="desc">Logo transparente do produto Caixa no Azul 30D</desc>
  <defs>
    <linearGradient id="blue" x1="0" y1="0" x2="1" y2="1">
      <stop offset="0" stop-color="#31F6FF"/>
      <stop offset="1" stop-color="#0977FF"/>
    </linearGradient>
    <linearGradient id="orange" x1="0" y1="0" x2="1" y2="1">
      <stop offset="0" stop-color="#FF9D1B"/>
      <stop offset="1" stop-color="#F26A1B"/>
    </linearGradient>
    <linearGradient id="dark" x1="0" y1="0" x2="1" y2="1">
      <stop offset="0" stop-color="#111827"/>
      <stop offset="1" stop-color="#020617"/>
    </linearGradient>
    <filter id="shadow" x="-20%" y="-20%" width="140%" height="140%">
      <feDropShadow dx="0" dy="7" stdDeviation="7" flood-color="#06101c" flood-opacity="0.18"/>
    </filter>
  </defs>

  <g filter="url(#shadow)">
    <path d="M90 30C54 30 25 59 25 95s29 65 65 65c20.5 0 38.8-9.4 50.7-24" stroke="url(#blue)" stroke-width="9" stroke-linecap="round"/>
    <path d="M140.7 136l4 24 20-13" stroke="url(#blue)" stroke-width="9" stroke-linecap="round" stroke-linejoin="round"/>
    <path d="M145 55C133.2 39.5 114.6 30 92.8 30" stroke="url(#orange)" stroke-width="9" stroke-linecap="round"/>
    <path d="M147 55l-5-24 23 9" stroke="url(#orange)" stroke-width="9" stroke-linecap="round" stroke-linejoin="round"/>

    <rect x="48" y="83" width="88" height="54" rx="13" fill="#0F1720" stroke="#24D8FF" stroke-width="5"/>
    <path d="M58 83V74c0-8 6-14 14-14h47c8 0 14 6 14 14v9" stroke="#F26A1B" stroke-width="5" stroke-linecap="round"/>
    <rect x="108" y="100" width="38" height="22" rx="11" fill="#111827" stroke="#24D8FF" stroke-width="5"/>
    <circle cx="122" cy="111" r="5" fill="#F26A1B"/>
    <rect x="66" y="65" width="10" height="18" rx="3" fill="#24D8FF"/>
    <rect x="84" y="52" width="10" height="31" rx="3" fill="#24D8FF"/>
    <rect x="102" y="39" width="10" height="44" rx="3" fill="#24D8FF"/>
    <rect x="120" y="27" width="10" height="56" rx="3" fill="#24D8FF"/>
  </g>

  <g font-family="Inter, Arial, sans-serif" font-weight="900">
    <text x="190" y="76" font-size="55" letter-spacing="-2" fill="url(#dark)" stroke="#ffffff" stroke-width="2" paint-order="stroke fill">CAIXA</text>
    <text x="390" y="76" font-size="35" letter-spacing="-1" fill="url(#dark)" stroke="#ffffff" stroke-width="1.8" paint-order="stroke fill">NO</text>
    <text x="457" y="76" font-size="55" letter-spacing="-2" fill="url(#blue)" stroke="#ffffff" stroke-width="1.7" paint-order="stroke fill">AZUL</text>
    <rect x="192" y="101" width="150" height="54" rx="14" fill="url(#orange)"/>
    <text x="216" y="141" font-size="40" letter-spacing="-1" fill="#fff">30D</text>
    <text x="365" y="136" font-size="18" letter-spacing="4" fill="#263241">GESTÃO FINANCEIRA</text>
  </g>
</svg>
