<svg width="760" height="180" viewBox="0 0 760 180" fill="none" xmlns="http://www.w3.org/2000/svg" role="img" aria-labelledby="title desc">
  <title id="title">Caixa no Azul 30D</title>
  <desc id="desc">Logo transparente do produto Caixa no Azul 30D</desc>
  <defs>
    <linearGradient id="blue" x1="0" y1="0" x2="1" y2="1">
      <stop offset="0" stop-color="#12d9ff"/>
      <stop offset="1" stop-color="#0b5dff"/>
    </linearGradient>
    <linearGradient id="orange" x1="0" y1="0" x2="1" y2="1">
      <stop offset="0" stop-color="#ff9d1b"/>
      <stop offset="1" stop-color="#f26a1b"/>
    </linearGradient>
    <filter id="softShadow" x="-20%" y="-20%" width="140%" height="140%">
      <feDropShadow dx="0" dy="8" stdDeviation="8" flood-color="#06101c" flood-opacity="0.18"/>
    </filter>
  </defs>

  <g filter="url(#softShadow)">
    <path d="M90 26C51.3 26 20 57.3 20 96s31.3 70 70 70c21.9 0 41.5-10.1 54.3-25.8" stroke="url(#blue)" stroke-width="10" stroke-linecap="round"/>
    <path d="M144 140l4 26 22-14" stroke="url(#blue)" stroke-width="10" stroke-linecap="round" stroke-linejoin="round"/>
    <path d="M147 52C134.2 36 114.6 26 92.8 26" stroke="url(#orange)" stroke-width="10" stroke-linecap="round"/>
    <path d="M149 52l-5-25 24 10" stroke="url(#orange)" stroke-width="10" stroke-linecap="round" stroke-linejoin="round"/>

    <rect x="47" y="83" width="88" height="54" rx="12" fill="#0f1720" stroke="#1ccffc" stroke-width="5"/>
    <path d="M57 83V73c0-8 6-14 14-14h48c8 0 14 6 14 14v10" stroke="#f26a1b" stroke-width="5" stroke-linecap="round"/>
    <rect x="108" y="99" width="37" height="22" rx="11" fill="#101820" stroke="#1ccffc" stroke-width="5"/>
    <circle cx="122" cy="110" r="5" fill="#f26a1b"/>
    <rect x="65" y="64" width="11" height="18" rx="3" fill="#1ccffc"/>
    <rect x="83" y="50" width="11" height="32" rx="3" fill="#1ccffc"/>
    <rect x="101" y="36" width="11" height="46" rx="3" fill="#1ccffc"/>
    <rect x="119" y="24" width="11" height="58" rx="3" fill="#1ccffc"/>
  </g>

  <g>
    <text x="194" y="78" font-family="Inter, Arial, sans-serif" font-size="56" font-weight="900" letter-spacing="-2" fill="#121820">CAIXA</text>
    <text x="389" y="78" font-family="Inter, Arial, sans-serif" font-size="38" font-weight="900" letter-spacing="-1" fill="#121820">NO</text>
    <text x="459" y="78" font-family="Inter, Arial, sans-serif" font-size="56" font-weight="900" letter-spacing="-2" fill="url(#blue)">AZUL</text>
    <rect x="194" y="104" width="148" height="52" rx="14" fill="url(#orange)"/>
    <text x="218" y="142" font-family="Inter, Arial, sans-serif" font-size="40" font-weight="900" letter-spacing="-1" fill="#ffffff">30D</text>
    <text x="365" y="138" font-family="Inter, Arial, sans-serif" font-size="18" font-weight="800" letter-spacing="4" fill="#344050">GESTÃO FINANCEIRA</text>
    <circle cx="578" cy="132" r="4" fill="#f26a1b"/>
    <text x="594" y="138" font-family="Inter, Arial, sans-serif" font-size="18" font-weight="800" letter-spacing="4" fill="#0b75ff">CAIXA NO CONTROLE</text>
  </g>
</svg>
